<svg width="80" height="80" viewBox="0 0 80 80" fill="none" xmlns="http://www.w3.org/2000/svg">
<path d="M40.002 4.16748C49.8953 4.16792 58.8575 8.17966 65.3389 14.6606C71.8207 21.1425 75.832 30.1081 75.832 40.0024C75.8316 49.8961 71.8203 58.8579 65.3389 65.3394C58.8574 71.8208 49.8956 75.8321 40.002 75.8325C30.1076 75.8325 21.142 71.8212 14.6602 65.3394C8.17917 58.8579 4.16743 49.8957 4.16699 40.0024C4.16699 30.1081 8.17837 21.1425 14.6602 14.6606C21.1421 8.17886 30.1076 4.16748 40.002 4.16748ZM58.4346 28.231C57.4583 27.2548 55.8757 27.2548 54.8994 28.231L36.667 46.4634L28.4346 38.231C27.4583 37.2548 25.8757 37.2548 24.8994 38.231C23.9232 39.2073 23.9232 40.7898 24.8994 41.7661L34.8994 51.7661C35.8757 52.7423 37.4583 52.7423 38.4346 51.7661L58.4346 31.7661C59.4107 30.7898 59.4107 29.2072 58.4346 28.231Z" fill="#155DFC"/>
</svg>
