<svg preserveAspectRatio="none" width="100%" height="100%" overflow="visible" style="display: block;" viewBox="0 0 16 16" fill="none" xmlns="http://www.w3.org/2000/svg">
<g id="Frame">
<path id="Vector" d="M1.33345 6.00012C1.86388 6.00012 2.37259 6.21083 2.74767 6.5859C3.12274 6.96098 3.33345 7.46969 3.33345 8.00012C3.33345 8.53055 3.12274 9.03926 2.74767 9.41433C2.37259 9.7894 1.86388 10.0001 1.33345 10.0001V11.3335C1.33345 11.6871 1.47393 12.0262 1.72398 12.2763C1.97402 12.5263 2.31316 12.6668 2.66679 12.6668H13.3335C13.6871 12.6668 14.0262 12.5263 14.2763 12.2763C14.5263 12.0262 14.6668 11.6871 14.6668 11.3335V10.0001C14.1364 10.0001 13.6276 9.7894 13.2526 9.41433C12.8775 9.03926 12.6668 8.53055 12.6668 8.00012C12.6668 7.46969 12.8775 6.96098 13.2526 6.5859C13.6276 6.21083 14.1364 6.00012 14.6668 6.00012V4.66678C14.6668 4.31316 14.5263 3.97402 14.2763 3.72398C14.0262 3.47393 13.6871 3.33345 13.3335 3.33345H2.66679C2.31316 3.33345 1.97402 3.47393 1.72398 3.72398C1.47393 3.97402 1.33345 4.31316 1.33345 4.66678V6.00012Z" stroke="#FFFFFF" stroke-width="1.53418" stroke-linecap="round" stroke-linejoin="round"/>
<path id="Line" d="M8.66655 3.33345V4.66678" stroke="#FFFFFF" stroke-width="1.53418" stroke-linecap="round" stroke-linejoin="round"/>
<path id="Line_2" d="M8.66655 11.3335V12.6668" stroke="#FFFFFF" stroke-width="1.53418" stroke-linecap="round" stroke-linejoin="round"/>
<path id="Line_3" d="M8.66655 7.33345V8.66679" stroke="#FFFFFF" stroke-width="1.53418" stroke-linecap="round" stroke-linejoin="round"/>
</g>
</svg>
