<svg preserveAspectRatio="none" width="100%" height="100%" overflow="visible" style="display: block;" viewBox="0 0 14.667 14.667" fill="none" xmlns="http://www.w3.org/2000/svg">
<path id="Union" d="M7.33301 0C11.383 0 14.6668 3.28306 14.667 7.33301C14.667 11.3831 11.3831 14.667 7.33301 14.667C3.28307 14.6668 0 11.383 0 7.33301C0.00016704 3.28317 3.28317 0.000180227 7.33301 0ZM7.33301 1.33301C4.01955 1.33319 1.33317 4.01955 1.33301 7.33301C1.33301 10.6466 4.01945 13.3328 7.33301 13.333C10.6467 13.333 13.333 10.6467 13.333 7.33301C13.3328 4.01944 10.6466 1.33301 7.33301 1.33301ZM6.39062 4.97656C6.91128 4.45611 7.75474 4.45611 8.27539 4.97656L9.69043 6.39062C10.2107 6.91126 10.2107 7.75479 9.69043 8.27539L8.27637 9.69043C7.75577 10.2108 6.91127 10.2107 6.39062 9.69043L4.97656 8.27539C4.45613 7.75476 4.45617 6.91128 4.97656 6.39062L6.39062 4.97656ZM5.91895 7.33301L7.33301 8.74707L8.74805 7.33301L7.33301 5.91895L5.91895 7.33301Z" fill="#6B7C93"/>
</svg>
