<svg preserveAspectRatio="none" width="100%" height="100%" overflow="visible" style="display: block;" viewBox="0 0 14 14" fill="none" xmlns="http://www.w3.org/2000/svg">
<path id="Vector" d="M10.7891 8.90552L8.99074 9.80397C8.84103 9.8788 8.67089 9.90242 8.5065 9.87101L8.64953 9.12156L8.50501 9.87101L8.50054 9.86952C8.49881 9.86918 8.4968 9.86848 8.49458 9.86803C8.48947 9.867 8.48283 9.86668 8.47521 9.86505C8.45988 9.86179 8.43905 9.85754 8.41412 9.85164C8.3644 9.83989 8.29636 9.82206 8.21297 9.79801C8.04561 9.7497 7.81443 9.67358 7.54696 9.55961C7.01482 9.33285 6.31708 8.94805 5.6845 8.31549C5.05201 7.683 4.66666 6.9843 4.43889 6.45155C4.32447 6.1839 4.24775 5.95312 4.19901 5.78553C4.17465 5.70176 4.15728 5.63277 4.14537 5.5829C4.13941 5.55793 4.13377 5.53713 4.13047 5.52181C4.12884 5.51428 4.12852 5.50748 4.12749 5.50244C4.12702 5.50017 4.12635 5.49822 4.126 5.49648V5.4935L4.12451 5.49201C4.09239 5.32688 4.11634 5.15527 4.19156 5.00479L5.09001 3.2064L4.15729 1.52572H2.22182C1.71373 1.52602 1.42955 1.97034 1.56326 2.36755C2.20499 4.2694 3.39125 7.10101 5.14514 8.85486C6.89899 10.6087 9.73062 11.795 11.6324 12.4367C12.0296 12.5703 12.4739 12.2862 12.4743 11.7782V9.84271L10.7891 8.90552ZM14 11.7782C13.9996 13.2403 12.6137 14.378 11.1437 13.882C9.20998 13.2295 6.08615 11.9533 4.0664 9.93359C2.04666 7.9139 0.770538 4.79004 0.117991 2.85626C-0.377985 1.38632 0.759677 0.000316229 2.22182 0H4.15729C4.71149 4.23403e-05 5.22177 0.300735 5.49081 0.785211L6.42502 2.46589C6.66924 2.90597 6.67996 3.43852 6.45482 3.88881L5.6845 5.42645C5.71932 5.53826 5.76965 5.68423 5.84095 5.85109C6.01593 6.26038 6.30585 6.77765 6.76324 7.23527C7.22081 7.69284 7.73662 7.98224 8.14444 8.15607C8.30965 8.22647 8.455 8.27506 8.5661 8.30953L10.1067 7.54071C10.5573 7.31558 11.0895 7.32731 11.5296 7.572L13.2148 8.50919H13.2163C13.6999 8.77842 14 9.28895 14 9.84271V11.7782Z" fill="var(--fill-0, #155DFC)"/>
</svg>
