<svg preserveAspectRatio="none" width="100%" height="100%" overflow="visible" style="display: block;" viewBox="0 0 14 12.667" fill="none" xmlns="http://www.w3.org/2000/svg">
<path id="Union" d="M12.333 0C13.2535 4.35582e-05 14 0.746553 14 1.66699V7C13.9999 7.36804 13.7011 7.66695 13.333 7.66699C12.965 7.66685 12.6671 7.36798 12.667 7V1.66699C12.667 1.48292 12.5171 1.33305 12.333 1.33301H1.66699C1.4829 1.33301 1.33301 1.4829 1.33301 1.66699V11C1.33315 11.184 1.48298 11.333 1.66699 11.333H8.49023C8.85824 11.3332 9.15615 11.632 9.15625 12C9.15611 12.368 8.85821 12.6668 8.49023 12.667H1.66699C0.746613 12.667 0.000141018 11.9204 0 11V1.66699C0 0.746519 0.746519 0 1.66699 0H12.333ZM10.5283 7.5293C10.7887 7.26894 11.2113 7.26896 11.4717 7.5293C11.7311 7.7895 11.7312 8.21053 11.4717 8.4707L10.9424 9H13.333C13.7012 9 14 9.2988 14 9.66699C13.9998 10.035 13.7011 10.333 13.333 10.333H10.9434L11.4717 10.8613C11.732 11.1216 11.7318 11.5443 11.4717 11.8047C11.2113 12.065 10.7887 12.065 10.5283 11.8047L8.8623 10.1387C8.83083 10.1073 8.80304 10.0723 8.77832 10.0352C8.76913 10.0213 8.76195 10.0065 8.75391 9.99219C8.74064 9.96864 8.72717 9.94514 8.7168 9.91992C8.65054 9.75828 8.64978 9.57577 8.71582 9.41406C8.72759 9.38529 8.74327 9.35862 8.75879 9.33203C8.76493 9.3215 8.7696 9.31006 8.77637 9.2998L8.78027 9.29395C8.8043 9.25836 8.83204 9.22555 8.8623 9.19531L10.5283 7.5293ZM6.82129 2.90625C7.05693 2.62386 7.47703 2.58511 7.75977 2.82031C8.0426 3.05601 8.08039 3.47691 7.84473 3.75977L7.08887 4.66699H7.66699C8.03491 4.66725 8.33291 4.96506 8.33301 5.33301C8.33301 5.70104 8.03497 5.99975 7.66699 6H6.33301V6.66699H7.66699C8.03491 6.66725 8.33291 6.96506 8.33301 7.33301C8.33301 7.70104 8.03497 7.99975 7.66699 8H6.33301V9.33301C6.33301 9.70104 6.03497 9.99975 5.66699 10C5.2988 10 5 9.7012 5 9.33301V8H3.66699C3.2988 8 3 7.7012 3 7.33301C3.0001 6.9649 3.29886 6.66699 3.66699 6.66699H5V6H3.66699C3.2988 6 3 5.7012 3 5.33301C3.0001 4.9649 3.29886 4.66699 3.66699 4.66699H4.24316L3.4873 3.75977C3.25188 3.47692 3.29049 3.05594 3.57324 2.82031C3.85608 2.58499 4.2771 2.62355 4.5127 2.90625L5.66602 4.29199L6.82129 2.90625Z" fill="var(--fill-0, #6B7C93)"/>
</svg>
