<svg width="22" height="22" viewBox="0 0 22 22" fill="none" xmlns="http://www.w3.org/2000/svg">
<path d="M16.5002 1.83331H5.50016C4.9939 1.83331 4.5835 2.24372 4.5835 2.74998V19.25C4.5835 19.7562 4.9939 20.1666 5.50016 20.1666H16.5002C17.0064 20.1666 17.4168 19.7562 17.4168 19.25V2.74998C17.4168 2.24372 17.0064 1.83331 16.5002 1.83331Z" stroke="#6B7C93" stroke-width="1.83333"/>
<path d="M7.3335 15.5833H11.0002" stroke="#6B7C93" stroke-width="1.83333" stroke-linecap="round" stroke-linejoin="round"/>
<path d="M9.1665 13.75V17.4167" stroke="#6B7C93" stroke-width="1.83333" stroke-linecap="round" stroke-linejoin="round"/>
<path d="M14.6668 4.58331H7.3335V8.70831H14.6668V4.58331Z" stroke="#6B7C93" stroke-width="1.83333" stroke-linejoin="round"/>
<path d="M14.2082 14.6666C14.7144 14.6666 15.1248 14.2562 15.1248 13.75C15.1248 13.2437 14.7144 12.8333 14.2082 12.8333C13.7019 12.8333 13.2915 13.2437 13.2915 13.75C13.2915 14.2562 13.7019 14.6666 14.2082 14.6666Z" fill="#6B7C93"/>
<path d="M14.2082 18.3333C14.7144 18.3333 15.1248 17.9229 15.1248 17.4167C15.1248 16.9104 14.7144 16.5 14.2082 16.5C13.7019 16.5 13.2915 16.9104 13.2915 17.4167C13.2915 17.9229 13.7019 18.3333 14.2082 18.3333Z" fill="#6B7C93"/>
</svg>
