<svg width="22" height="22" viewBox="0 0 22 22" fill="none" xmlns="http://www.w3.org/2000/svg">
<path d="M1.8335 8.25004C2.56284 8.25004 3.26231 8.53977 3.77804 9.0555C4.29376 9.57122 4.5835 10.2707 4.5835 11C4.5835 11.7294 4.29376 12.4289 3.77804 12.9446C3.26231 13.4603 2.56284 13.75 1.8335 13.75V15.5834C1.8335 16.0696 2.02665 16.5359 2.37047 16.8797C2.71428 17.2236 3.1806 17.4167 3.66683 17.4167H18.3335C18.8197 17.4167 19.286 17.2236 19.6299 16.8797C19.9737 16.5359 20.1668 16.0696 20.1668 15.5834V13.75C19.4375 13.75 18.738 13.4603 18.2223 12.9446C17.7066 12.4289 17.4168 11.7294 17.4168 11C17.4168 10.2707 17.7066 9.57122 18.2223 9.0555C18.738 8.53977 19.4375 8.25004 20.1668 8.25004V6.41671C20.1668 5.93048 19.9737 5.46416 19.6299 5.12034C19.286 4.77653 18.8197 4.58337 18.3335 4.58337H3.66683C3.1806 4.58337 2.71428 4.77653 2.37047 5.12034C2.02665 5.46416 1.8335 5.93048 1.8335 6.41671V8.25004Z" stroke="#155DFC" stroke-width="1.83333" stroke-linecap="round" stroke-linejoin="round"/>
<path d="M11.9165 4.58337V6.41671" stroke="#155DFC" stroke-width="1.83333" stroke-linecap="round" stroke-linejoin="round"/>
<path d="M11.9165 15.5834V17.4167" stroke="#155DFC" stroke-width="1.83333" stroke-linecap="round" stroke-linejoin="round"/>
<path d="M11.9165 10.0834V11.9167" stroke="#155DFC" stroke-width="1.83333" stroke-linecap="round" stroke-linejoin="round"/>
</svg>
