<svg width="22" height="22" viewBox="0 0 22 22" fill="none" xmlns="http://www.w3.org/2000/svg">
<path d="M10.9995 0.916748C16.5682 0.916768 21.0833 5.43106 21.0835 10.9998C21.0835 16.5686 16.5684 21.0837 10.9995 21.0837C5.43081 21.0835 0.916517 16.5685 0.916504 10.9998C0.916697 5.43117 5.43092 0.916941 10.9995 0.916748ZM10.9995 2.74976C6.44344 2.74995 2.74971 6.44369 2.74951 10.9998C2.74952 15.556 6.44333 19.2496 10.9995 19.2498C15.5558 19.2497 19.2495 15.5561 19.2495 10.9998C19.2493 6.44358 15.5557 2.74978 10.9995 2.74976ZM9.70361 7.75854C10.4194 7.04303 11.5795 7.04326 12.2954 7.75854L14.2407 9.70386C14.9562 10.4198 14.9563 11.5798 14.2407 12.2957L12.2964 14.24C11.5804 14.956 10.4196 14.956 9.70361 14.24L7.7583 12.2957C7.04303 11.5797 7.04382 10.4196 7.75928 9.70386L9.70361 7.75854ZM9.05518 10.9998L10.9995 12.9441L12.9448 10.9998L10.9995 9.05444L9.05518 10.9998Z" fill="#155DFC"/>
</svg>
