<svg width="22" height="22" viewBox="0 0 22 22" fill="none" xmlns="http://www.w3.org/2000/svg">
<path d="M7.3335 12.8334C10.3711 12.8334 12.8335 10.3709 12.8335 7.33337C12.8335 4.29581 10.3711 1.83337 7.3335 1.83337C4.29593 1.83337 1.8335 4.29581 1.8335 7.33337C1.8335 10.3709 4.29593 12.8334 7.3335 12.8334Z" stroke="#155DFC" stroke-width="1.66667" stroke-linecap="round" stroke-linejoin="round"/>
<path d="M16.5827 9.50586C17.4492 9.82892 18.2203 10.3653 18.8246 11.0653C19.4289 11.7653 19.847 12.6064 20.0401 13.5108C20.2332 14.4152 20.1952 15.3537 19.9295 16.2396C19.6638 17.1254 19.179 17.9299 18.52 18.5787C17.861 19.2275 17.049 19.6996 16.1592 19.9515C15.2693 20.2033 14.3303 20.2267 13.4291 20.0195C12.5278 19.8123 11.6933 19.3812 11.0028 18.766C10.3123 18.1509 9.78801 17.3715 9.47852 16.5" stroke="#155DFC" stroke-width="1.66667" stroke-linecap="round" stroke-linejoin="round"/>
<path d="M6.4165 5.5H7.33317V9.16667" stroke="#155DFC" stroke-width="1.66667" stroke-linecap="round" stroke-linejoin="round"/>
<path d="M15.3174 12.7234L15.959 13.3742L13.374 15.9592" stroke="#155DFC" stroke-width="1.66667" stroke-linecap="round" stroke-linejoin="round"/>
</svg>
