<svg width="22" height="22" viewBox="0 0 22 22" fill="none" xmlns="http://www.w3.org/2000/svg">
<path d="M18.3335 2.29175C19.599 2.29194 20.6255 3.31822 20.6255 4.58374V11.9167C20.6253 12.4227 20.2145 12.8335 19.7085 12.8337C19.2025 12.8335 18.7917 12.4227 18.7915 11.9167V4.58374C18.7915 4.33072 18.5865 4.12495 18.3335 4.12476H3.6665C3.41353 4.12493 3.2085 4.33072 3.2085 4.58374V17.4167C3.20869 17.6696 3.41364 17.8746 3.6665 17.8748H13.0493C13.5553 17.8749 13.9651 18.2857 13.9653 18.7917C13.9651 19.2978 13.5553 19.7086 13.0493 19.7087H3.6665C2.40113 19.7086 1.37568 18.6822 1.37549 17.4167V4.58374C1.37549 3.3182 2.401 2.29193 3.6665 2.29175H18.3335ZM15.8521 12.6443C16.21 12.2863 16.7909 12.2863 17.1489 12.6443C17.5059 13.0021 17.5059 13.5814 17.1489 13.9392L16.4214 14.6667H19.7085C20.2147 14.6668 20.6245 15.0775 20.6245 15.5837C20.6243 16.0898 20.2146 16.4997 19.7085 16.4998H16.4224L17.1489 17.2263C17.5068 17.5842 17.5065 18.1652 17.1489 18.5232C16.7909 18.8812 16.21 18.8812 15.8521 18.5232L13.5601 16.2312C13.5187 16.1898 13.4816 16.1442 13.4487 16.0955C13.4225 16.0566 13.4 16.016 13.3804 15.9744C13.374 15.961 13.3665 15.9481 13.3608 15.9343C13.334 15.8694 13.3164 15.8016 13.3052 15.7332C13.2972 15.6845 13.2925 15.6347 13.2925 15.5837C13.2925 15.5126 13.3006 15.4432 13.3159 15.3767C13.327 15.3287 13.341 15.2811 13.3599 15.2351C13.3672 15.2171 13.3758 15.1997 13.3843 15.1824C13.4185 15.112 13.4628 15.0456 13.5161 14.9841C13.5332 14.9644 13.5502 14.9447 13.5688 14.9265L15.8521 12.6443ZM10.7544 6.28882C11.0784 5.89997 11.6565 5.84675 12.0454 6.17065C12.4341 6.49477 12.4866 7.07283 12.1626 7.46167L11.1235 8.70874H11.9165C12.4227 8.70874 12.8334 9.11861 12.8335 9.62476C12.8335 10.131 12.4228 10.5417 11.9165 10.5417H10.0835V11.4587H11.9165C12.4227 11.4587 12.8334 11.8686 12.8335 12.3748C12.8335 12.881 12.4228 13.2917 11.9165 13.2917H10.0835V15.1248C10.0835 15.631 9.67276 16.0417 9.1665 16.0417C8.66039 16.0416 8.25049 15.6309 8.25049 15.1248V13.2917H6.4165C5.91039 13.2916 5.50049 12.8809 5.50049 12.3748C5.50062 11.8687 5.91048 11.4589 6.4165 11.4587H8.25049V10.5417H6.4165C5.91039 10.5416 5.50049 10.1309 5.50049 9.62476C5.50062 9.11872 5.91048 8.70892 6.4165 8.70874H7.20947L6.17041 7.46167C5.84677 7.07284 5.90004 6.49468 6.28857 6.17065C6.67749 5.84694 7.25561 5.90004 7.57959 6.28882L9.1665 8.19312L10.7544 6.28882Z" fill="#155DFC"/>
</svg>
